{
  "accessors": [
    {
      "name": "shield_1_0_positions",
      "componentType": 5126,
      "count": 188,
      "min": [
        -3.5267109870910645,
        2.5484108924865723,
        4.909093856811523
      ],
      "max": [
        3.526711940765381,
        9.601835250854492,
        6.126047134399414
      ],
      "type": "VEC3",
      "bufferView": 0,
      "byteOffset": 0
    },
    {
      "name": "shield_1_0_normals",
      "componentType": 5126,
      "count": 188,
      "min": [
        -0.8526418209075928,
        -0.8526380658149719,
        -0.8526802659034729
      ],
      "max": [
        0.85263991355896,
        0.8526394963264465,
        1
      ],
      "type": "VEC3",
      "bufferView": 1,
      "byteOffset": 0
    },
    {
      "name": "shield_1_0_texcoords",
      "componentType": 5126,
      "count": 188,
      "min": [
        0,
        0.800000011920929
      ],
      "max": [
        1,
        1
      ],
      "type": "VEC2",
      "bufferView": 2,
      "byteOffset": 0
    },
    {
      "name": "shield_1_0_indices",
      "componentType": 5123,
      "count": 660,
      "min": [
        0
      ],
      "max": [
        187
      ],
      "type": "SCALAR",
      "bufferView": 3,
      "byteOffset": 0
    },
    {
      "name": "roller_1_0_positions",
      "componentType": 5126,
      "count": 439,
      "min": [
        -6,
        0.07512100040912628,
        -6
      ],
      "max": [
        6.000000953674316,
        12.075124740600586,
        6
      ],
      "type": "VEC3",
      "bufferView": 0,
      "byteOffset": 2256
    },
    {
      "name": "roller_1_0_normals",
      "componentType": 5126,
      "count": 439,
      "min": [
        -1,
        -1,
        -1
      ],
      "max": [
        1,
        1,
        1
      ],
      "type": "VEC3",
      "bufferView": 1,
      "byteOffset": 2256
    },
    {
      "name": "roller_1_0_texcoords",
      "componentType": 5126,
      "count": 439,
      "min": [
        0,
        0
      ],
      "max": [
        1,
        1
      ],
      "type": "VEC2",
      "bufferView": 2,
      "byteOffset": 1504
    },
    {
      "name": "roller_1_0_indices",
      "componentType": 5123,
      "count": 2280,
      "min": [
        0
      ],
      "max": [
        438
      ],
      "type": "SCALAR",
      "bufferView": 3,
      "byteOffset": 1320
    },
    {
      "name": "reye_1_0_positions",
      "componentType": 5126,
      "count": 134,
      "min": [
        0.6533780097961426,
        12.880104064941406,
        0.47188499569892883
      ],
      "max": [
        2.360919952392578,
        14.587645530700684,
        3.7124199867248535
      ],
      "type": "VEC3",
      "bufferView": 0,
      "byteOffset": 7524
    },
    {
      "name": "reye_1_0_normals",
      "componentType": 5126,
      "count": 134,
      "min": [
        -1,
        -1,
        0
      ],
      "max": [
        1,
        1,
        1
      ],
      "type": "VEC3",
      "bufferView": 1,
      "byteOffset": 7524
    },
    {
      "name": "reye_1_0_texcoords",
      "componentType": 5126,
      "count": 134,
      "min": [
        0.34375,
        0
      ],
      "max": [
        0.65625,
        0.6875
      ],
      "type": "VEC2",
      "bufferView": 2,
      "byteOffset": 5016
    },
    {
      "name": "reye_1_0_indices",
      "componentType": 5123,
      "count": 540,
      "min": [
        0
      ],
      "max": [
        133
      ],
      "type": "SCALAR",
      "bufferView": 3,
      "byteOffset": 5880
    },
    {
      "name": "leye_1_0_positions",
      "componentType": 5126,
      "count": 132,
      "min": [
        -2.3533620834350586,
        12.880104064941406,
        0.47188499569892883
      ],
      "max": [
        -0.6458200216293335,
        14.587645530700684,
        3.7124199867248535
      ],
      "type": "VEC3",
      "bufferView": 0,
      "byteOffset": 9132
    },
    {
      "name": "leye_1_0_normals",
      "componentType": 5126,
      "count": 132,
      "min": [
        -1,
        -1,
        0
      ],
      "max": [
        1,
        1,
        1
      ],
      "type": "VEC3",
      "bufferView": 1,
      "byteOffset": 9132
    },
    {
      "name": "leye_1_0_texcoords",
      "componentType": 5126,
      "count": 132,
      "min": [
        0.34375,
        0
      ],
      "max": [
        0.65625,
        0.6875
      ],
      "type": "VEC2",
      "bufferView": 2,
      "byteOffset": 6088
    },
    {
      "name": "leye_1_0_indices",
      "componentType": 5123,
      "count": 540,
      "min": [
        0
      ],
      "max": [
        131
      ],
      "type": "SCALAR",
      "bufferView": 3,
      "byteOffset": 6960
    },
    {
      "name": "head_1_0_positions",
      "componentType": 5126,
      "count": 453,
      "min": [
        -3.5,
        11.242449760437012,
        -3.5000009536743164
      ],
      "max": [
        3.5000009536743164,
        16.077713012695312,
        3.5000009536743164
      ],
      "type": "VEC3",
      "bufferView": 0,
      "byteOffset": 10716
    },
    {
      "name": "head_1_0_normals",
      "componentType": 5126,
      "count": 453,
      "min": [
        -1,
        -1,
        -1
      ],
      "max": [
        1,
        1,
        1
      ],
      "type": "VEC3",
      "bufferView": 1,
      "byteOffset": 10716
    },
    {
      "name": "head_1_0_texcoords",
      "componentType": 5126,
      "count": 453,
      "min": [
        0,
        0
      ],
      "max": [
        1,
        1
      ],
      "type": "VEC2",
      "bufferView": 2,
      "byteOffset": 7144
    },
    {
      "name": "head_1_0_indices",
      "componentType": 5123,
      "count": 1740,
      "min": [
        0
      ],
      "max": [
        452
      ],
      "type": "SCALAR",
      "bufferView": 3,
      "byteOffset": 8040
    },
    {
      "name": "shooter_1_0_positions",
      "componentType": 5126,
      "count": 188,
      "min": [
        -2.0715620517730713,
        4.003561019897461,
        5.751410961151123
      ],
      "max": [
        2.0715630054473877,
        8.146685600280762,
        6.243991851806641
      ],
      "type": "VEC3",
      "bufferView": 0,
      "byteOffset": 16152
    },
    {
      "name": "shooter_1_0_normals",
      "componentType": 5126,
      "count": 188,
      "min": [
        -1,
        -1,
        -0.9561954140663147
      ],
      "max": [
        1,
        1,
        1
      ],
      "type": "VEC3",
      "bufferView": 1,
      "byteOffset": 16152
    },
    {
      "name": "shooter_1_0_texcoords",
      "componentType": 5126,
      "count": 188,
      "min": [
        0,
        0.887499988079071
      ],
      "max": [
        1,
        1
      ],
      "type": "VEC2",
      "bufferView": 2,
      "byteOffset": 10768
    },
    {
      "name": "shooter_1_0_indices",
      "componentType": 5123,
      "count": 660,
      "min": [
        0
      ],
      "max": [
        187
      ],
      "type": "SCALAR",
      "bufferView": 3,
      "byteOffset": 11520
    }
  ],
  "asset": {
    "generator": "obj2gltf",
    "version": "2.0"
  },
  "buffers": [
    {
      "name": "GameDSW",
      "byteLength": 61928,
      "uri": "data:application/octet-stream;base64,"
    }
  ],
  "bufferViews": [
    {
      "name": "bufferView_0",
      "buffer": 0,
      "byteLength": 18408,
      "byteOffset": 0,
      "byteStride": 12,
      "target": 34962
    },
    {
      "name": "bufferView_1",
      "buffer": 0,
      "byteLength": 18408,
      "byteOffset": 18408,
      "byteStride": 12,
      "target": 34962
    },
    {
      "name": "bufferView_2",
      "buffer": 0,
      "byteLength": 12272,
      "byteOffset": 36816,
      "byteStride": 8,
      "target": 34962
    },
    {
      "name": "bufferView_3",
      "buffer": 0,
      "byteLength": 12840,
      "byteOffset": 49088,
      "target": 34963
    }
  ],
  "materials": [
    {
      "name": "default",
      "pbrMetallicRoughness": {
        "baseColorFactor": [
          0.5,
          0.5,
          0.5,
          1
        ],
        "metallicFactor": 0,
        "roughnessFactor": 1
      },
      "emissiveFactor": [
        0,
        0,
        0
      ],
      "alphaMode": "OPAQUE",
      "doubleSided": false
    }
  ],
  "meshes": [
    {
      "name": "shield_1",
      "primitives": [
        {
          "attributes": {
            "POSITION": 0,
            "NORMAL": 1,
            "TEXCOORD_0": 2
          },
          "indices": 3,
          "material": 0,
          "mode": 4
        }
      ]
    },
    {
      "name": "roller_1",
      "primitives": [
        {
          "attributes": {
            "POSITION": 4,
            "NORMAL": 5,
            "TEXCOORD_0": 6
          },
          "indices": 7,
          "material": 0,
          "mode": 4
        }
      ]
    },
    {
      "name": "reye_1",
      "primitives": [
        {
          "attributes": {
            "POSITION": 8,
            "NORMAL": 9,
            "TEXCOORD_0": 10
          },
          "indices": 11,
          "material": 0,
          "mode": 4
        }
      ]
    },
    {
      "name": "leye_1",
      "primitives": [
        {
          "attributes": {
            "POSITION": 12,
            "NORMAL": 13,
            "TEXCOORD_0": 14
          },
          "indices": 15,
          "material": 0,
          "mode": 4
        }
      ]
    },
    {
      "name": "head_1",
      "primitives": [
        {
          "attributes": {
            "POSITION": 16,
            "NORMAL": 17,
            "TEXCOORD_0": 18
          },
          "indices": 19,
          "material": 0,
          "mode": 4
        }
      ]
    },
    {
      "name": "shooter_1",
      "primitives": [
        {
          "attributes": {
            "POSITION": 20,
            "NORMAL": 21,
            "TEXCOORD_0": 22
          },
          "indices": 23,
          "material": 0,
          "mode": 4
        }
      ]
    }
  ],
  "nodes": [
    {
      "name": "shield",
      "mesh": 0
    },
    {
      "name": "roller",
      "mesh": 1
    },
    {
      "name": "reye",
      "mesh": 2
    },
    {
      "name": "leye",
      "mesh": 3
    },
    {
      "name": "head",
      "mesh": 4
    },
    {
      "name": "shooter",
      "mesh": 5
    }
  ],
  "scene": 0,
  "scenes": [
    {
      "nodes": [
        0,
        1,
        2,
        3,
        4,
        5
      ]
    }
  ]
}
